<svg xmlns="http://www.w3.org/2000/svg" viewBox="0 0 24 24" role="img" aria-label="YouTube">
  <rect width="24" height="24" rx="6" fill="#FF0000"/>
  <path d="M19.5 7.5s-.2-1.3-.8-1.9c-.7-.8-1.5-.8-1.9-.8C14.5 4.7 12 4.7 12 4.7s-2.5 0-4.8.1c-.4 0-1.2.1-1.9.8-.6.6-.8 1.9-.8 1.9S4.3 9 4.3 10.5v1.4c0 1.4.2 2.9.2 2.9s.2 1.3.8 1.9c.7.8 1.7.7 2.1.8C8.7 17.6 12 17.6 12 17.6s2.5 0 4.8-.2c.4 0 1.2-.1 1.9-.8.6-.6.8-1.9.8-1.9s.2-1.5.2-2.9v-1.4C19.7 9 19.5 7.5 19.5 7.5zM10.2 14.1V9.4l5.1 2.4-5.1 2.3z" fill="white"/>
</svg>
